<?xml version="1.0" standalone="no"?>
<!DOCTYPE svg PUBLIC "-//W3C//DTD SVG 20010904//EN"
 "http://www.w3.org/TR/2001/REC-SVG-20010904/DTD/svg10.dtd">
<svg version="1.0" xmlns="http://www.w3.org/2000/svg"
 width="401.000000pt" height="65.000000pt" viewBox="0 0 401.000000 65.000000"
 preserveAspectRatio="xMidYMid meet">

<g transform="translate(0.000000,65.000000) scale(0.100000,-0.100000)"
fill="#000000" stroke="none">
<path d="M0 325 l0 -325 2005 0 2005 0 0 325 0 325 -2005 0 -2005 0 0 -325z
m800 35 l0 -180 -30 0 c-23 0 -30 4 -30 20 0 24 3 24 -44 1 -30 -16 -43 -17
-67 -9 -76 26 -90 146 -25 207 28 27 79 30 104 8 10 -10 22 -17 25 -17 4 0 7
34 7 75 l0 75 30 0 30 0 0 -180z m140 145 c0 -26 -29 -46 -51 -35 -24 13 -25
46 -2 59 21 11 53 -3 53 -24z m130 -145 l0 -180 -30 0 -30 0 0 180 0 180 30 0
30 0 0 -180z m-800 130 l0 -30 -60 0 -60 0 0 -45 0 -45 55 0 c54 0 55 0 55
-30 0 -30 -1 -30 -55 -30 l-55 0 0 -65 0 -65 -30 0 -30 0 0 170 0 170 90 0 90
0 0 -30z m208 -97 c20 -21 22 -35 22 -119 0 -94 0 -94 -25 -94 -18 0 -25 5
-25 20 0 21 -15 27 -25 9 -23 -37 -97 -28 -116 15 -24 53 20 106 88 106 37 0
55 13 47 33 -7 20 -73 24 -105 7 -16 -9 -19 -7 -19 14 0 21 6 26 43 34 55 12
87 5 115 -25z m452 -88 l0 -125 -30 0 -30 0 0 125 0 125 30 0 30 0 0 -125z"/>
<path d="M646 367 c-9 -7 -20 -31 -23 -54 -4 -33 -1 -45 16 -62 44 -44 101
-11 101 57 0 61 -49 92 -94 59z"/>
<path d="M366 284 c-19 -19 -20 -26 -4 -42 29 -29 88 -2 88 39 0 15 -7 19 -34
19 -19 0 -42 -7 -50 -16z"/>
</g>
</svg>
